<svg width="44" height="26" viewBox="0 0 44 26" fill="none" xmlns="http://www.w3.org/2000/svg">
<path d="M10.4325 3.48546C11.8159 3.48546 13.1426 4.03627 14.1208 5.01671C15.0991 5.99715 15.6486 7.32692 15.6486 8.71347C15.6486 12.1988 10.4325 18.0803 10.4325 18.0803C10.4325 18.0803 5.21631 12.1988 5.21631 8.71347C5.21631 7.32692 5.76587 5.99715 6.74409 5.01671C7.72231 4.03627 9.04906 3.48546 10.4325 3.48546Z" fill="url(#paint0_linear_1208_322)"/>
<rect width="23.6263" height="8.51657" rx="4.25828" transform="matrix(-0.559134 0.829077 -0.837702 -0.546128 31.0878 6.41211)" fill="url(#paint1_linear_1208_322)"/>
<rect width="23.6263" height="8.51656" rx="4.25828" transform="matrix(-0.559173 0.829051 -0.837677 -0.546166 43.6219 6.38507)" fill="url(#paint2_linear_1208_322)"/>
<defs>
<linearGradient id="paint0_linear_1208_322" x1="15.6486" y1="8.54726" x2="5.27342" y2="13.1473" gradientUnits="userSpaceOnUse">
<stop stop-color="#A1DFDB"/>
<stop offset="0.525" stop-color="#56B0FF"/>
<stop offset="1" stop-color="#00A4FD"/>
</linearGradient>
<linearGradient id="paint1_linear_1208_322" x1="23.6263" y1="6.8505" x2="2.7148" y2="12.2263" gradientUnits="userSpaceOnUse">
<stop stop-color="#A1DFDB"/>
<stop offset="0.56" stop-color="#56B0FF"/>
<stop offset="1" stop-color="#00A4FD"/>
</linearGradient>
<linearGradient id="paint2_linear_1208_322" x1="11.1556" y1="8.51656" x2="9.10144" y2="0.909867" gradientUnits="userSpaceOnUse">
<stop stop-color="#00A4FD"/>
<stop offset="0.505" stop-color="#56B0FF"/>
<stop offset="1" stop-color="#A1DFDB"/>
</linearGradient>
</defs>
</svg>
